<svg width="14" height="14" viewBox="0 0 14 14" fill="none" xmlns="http://www.w3.org/2000/svg">
<path d="M11.2656 4.375H7.4375V3.79744C8.06623 3.51677 8.43509 3.11252 8.5351 2.59266C8.76036 1.42174 7.43782 0.237817 7.28631 0.10668C7.20786 0.0387857 7.10783 0.000982454 7.00409 1.88843e-05C6.90034 -0.000944685 6.79963 0.0349942 6.71994 0.101419C6.56357 0.231676 5.19883 1.40818 5.4202 2.58134C5.51992 3.10998 5.90371 3.5196 6.5625 3.8019V4.375H2.73438C2.27041 4.37553 1.82559 4.56007 1.49752 4.88814C1.16944 5.21622 0.984901 5.66103 0.984375 6.125V6.85388C0.985486 7.1661 1.04845 7.475 1.16962 7.76275C1.29079 8.0505 1.46777 8.31138 1.69035 8.53034C1.70987 8.54951 1.72997 8.56775 1.75 8.58612V11.375C1.75027 11.607 1.84254 11.8294 2.00657 11.9934C2.17061 12.1575 2.39302 12.2497 2.625 12.25H11.375C11.607 12.2497 11.8294 12.1575 11.9934 11.9934C12.1575 11.8294 12.2497 11.607 12.25 11.375V8.58618C12.27 8.56781 12.2901 8.54951 12.3097 8.53034C12.5322 8.31138 12.7092 8.0505 12.8304 7.76275C12.9516 7.475 13.0145 7.1661 13.0156 6.85388V6.125C13.0151 5.66103 12.8306 5.21622 12.5025 4.88814C12.1744 4.56007 11.7296 4.37553 11.2656 4.375ZM11.375 11.375H2.625V9.08923C2.852 9.15865 3.08856 9.19167 3.3259 9.18707C3.68116 9.17912 4.02975 9.08894 4.3443 8.92361C4.65884 8.75828 4.93079 8.52229 5.1388 8.23418C5.35126 8.52923 5.63082 8.76955 5.95443 8.9353C6.27803 9.10106 6.63641 9.1875 7 9.1875C7.36359 9.1875 7.72197 9.10106 8.04557 8.9353C8.36918 8.76955 8.64874 8.52923 8.8612 8.23418C9.06921 8.52229 9.34116 8.75828 9.6557 8.92361C9.97025 9.08894 10.3188 9.17912 10.6741 9.18707C10.6887 9.18734 10.7033 9.18748 10.7179 9.1875C10.9406 9.18761 11.162 9.1546 11.375 9.08955V11.375Z" fill="#8F90A6"/>
</svg>
