<svg width="20" height="20" viewBox="0 0 20 20" fill="none" xmlns="http://www.w3.org/2000/svg">
<path d="M19.9999 10.6249C19.9999 10.707 19.9837 10.7883 19.9523 10.8641C19.9209 10.9399 19.8749 11.0088 19.8168 11.0669C19.7588 11.1249 19.6899 11.171 19.6141 11.2024C19.5382 11.2338 19.4569 11.2499 19.3749 11.2499H18.1249V12.4999C18.1249 12.6657 18.059 12.8247 17.9418 12.9419C17.8246 13.0591 17.6656 13.1249 17.4999 13.1249C17.3341 13.1249 17.1751 13.0591 17.0579 12.9419C16.9407 12.8247 16.8749 12.6657 16.8749 12.4999V11.2499H15.6249C15.4591 11.2499 15.3001 11.1841 15.1829 11.0669C15.0657 10.9497 14.9999 10.7907 14.9999 10.6249C14.9999 10.4592 15.0657 10.3002 15.1829 10.183C15.3001 10.0658 15.4591 9.99994 15.6249 9.99994H16.8749V8.74994C16.8749 8.58418 16.9407 8.42521 17.0579 8.308C17.1751 8.19079 17.3341 8.12494 17.4999 8.12494C17.6656 8.12494 17.8246 8.19079 17.9418 8.308C18.059 8.42521 18.1249 8.58418 18.1249 8.74994V9.99994H19.3749C19.4569 9.99994 19.5382 10.0161 19.6141 10.0475C19.6899 10.0789 19.7588 10.125 19.8168 10.183C19.8749 10.241 19.9209 10.3099 19.9523 10.3858C19.9837 10.4616 19.9999 10.5429 19.9999 10.6249ZM11.261 12.3092C12.2375 11.6965 12.9881 10.7828 13.3997 9.70605C13.8113 8.62929 13.8615 7.44788 13.5427 6.34009C13.2239 5.2323 12.5535 4.25826 11.6325 3.56495C10.7116 2.87165 9.59011 2.4967 8.43737 2.4967C7.28463 2.4967 6.16317 2.87165 5.24222 3.56495C4.32127 4.25826 3.65082 5.2323 3.33204 6.34009C3.01327 7.44788 3.06346 8.62929 3.47505 9.70605C3.88664 10.7828 4.63729 11.6965 5.61372 12.3092C3.91356 12.8459 2.40188 13.8566 1.25632 15.2228C1.17977 15.3139 1.13083 15.425 1.11525 15.5429C1.09966 15.6609 1.11808 15.7809 1.16835 15.8888C1.21861 15.9966 1.29862 16.0879 1.39898 16.1519C1.49934 16.2158 1.61587 16.2498 1.73487 16.2498L15.1399 16.2498C15.2589 16.2498 15.3754 16.2158 15.4758 16.1519C15.5762 16.0879 15.6562 15.9967 15.7064 15.8888C15.7567 15.7809 15.7751 15.6609 15.7595 15.543C15.744 15.425 15.695 15.3139 15.6185 15.2228C14.4729 13.8567 12.9612 12.8459 11.261 12.3092Z" fill="#475467"/>
</svg>
