<svg width="20" height="20" viewBox="0 0 20 20" fill="none" xmlns="http://www.w3.org/2000/svg">
<path d="M17.4995 9.37501V16.25C17.4992 16.5814 17.3673 16.8991 17.133 17.1335C16.8987 17.3678 16.5809 17.4996 16.2495 17.5H3.74954C3.41814 17.4996 3.10042 17.3678 2.86608 17.1335C2.63174 16.8991 2.49992 16.5814 2.49954 16.25V3.75001C2.49992 3.41861 2.63174 3.10088 2.86608 2.86654C3.10042 2.63221 3.41814 2.50039 3.74954 2.50001H10.6245C10.7903 2.50001 10.9493 2.56586 11.0665 2.68307C11.1837 2.80028 11.2495 2.95925 11.2495 3.12501C11.2495 3.29077 11.1837 3.44974 11.0665 3.56695C10.9493 3.68416 10.7903 3.75001 10.6245 3.75001H3.74954V16.25H16.2495V9.37501C16.2495 9.20925 16.3154 9.05028 16.4326 8.93307C16.5498 8.81586 16.7088 8.75001 16.8745 8.75001C17.0403 8.75001 17.1993 8.81586 17.3165 8.93307C17.4337 9.05028 17.4995 9.20925 17.4995 9.37501ZM17.9415 5.44194L10.4415 12.9419C10.3243 13.0592 10.1653 13.125 9.99954 13.125H7.49954C7.33378 13.125 7.17482 13.0592 7.05761 12.9419C6.9404 12.8247 6.87455 12.6658 6.87454 12.5V10C6.87454 9.83426 6.94038 9.67529 7.05757 9.55808L14.5576 2.05808C14.6156 2.00003 14.6845 1.95399 14.7603 1.92258C14.8362 1.89117 14.9175 1.875 14.9995 1.875C15.0816 1.875 15.1629 1.89117 15.2387 1.92258C15.3146 1.95399 15.3835 2.00003 15.4415 2.05808L17.9415 4.55808C18.0587 4.67529 18.1246 4.83425 18.1246 5.00001C18.1246 5.16577 18.0587 5.32473 17.9415 5.44194ZM16.6157 5.00001L14.9995 3.38388L14.0084 4.37501L15.6246 5.99114L16.6157 5.00001Z" fill="#475467"/>
</svg>
