<svg width="16" height="16" viewBox="0 0 16 16" fill="none" xmlns="http://www.w3.org/2000/svg">
<path d="M8.28098 3.83008L8.88398 3.22708C9.1393 2.97152 9.44246 2.76877 9.77616 2.63041C10.1099 2.49206 10.4675 2.4208 10.8288 2.42072C11.19 2.42063 11.5477 2.49172 11.8815 2.62992C12.2153 2.76813 12.5185 2.97073 12.774 3.22617C13.0294 3.48161 13.232 3.78487 13.3702 4.11863C13.5084 4.45239 13.5795 4.81011 13.5794 5.17136C13.5793 5.5326 13.5081 5.89029 13.3697 6.22398C13.2314 6.55768 13.0286 6.86085 12.7731 7.11616L10.8803 9.00893C10.6249 9.26429 10.3218 9.46686 9.98813 9.60506C9.65449 9.74326 9.29689 9.81439 8.93575 9.81439C8.57462 9.81439 8.21702 9.74326 7.88338 9.60506C7.54973 9.46686 7.24657 9.26429 6.99121 9.00893" stroke="#2D65C3" stroke-width="1.5" stroke-linecap="round" stroke-linejoin="round"/>
<path d="M7.71924 12.1701L7.11635 12.773C6.86103 13.0285 6.55786 13.2313 6.22416 13.3696C5.89047 13.508 5.53278 13.5793 5.17154 13.5793C4.8103 13.5794 4.45258 13.5083 4.11881 13.3701C3.78505 13.2319 3.48179 13.0293 3.22635 12.7739C2.97092 12.5184 2.76831 12.2152 2.63011 11.8814C2.4919 11.5477 2.42081 11.1899 2.4209 10.8287C2.42098 10.4675 2.49224 10.1098 2.6306 9.77607C2.76896 9.44238 2.9717 9.13921 3.22726 8.88389L5.12003 6.99113C5.37539 6.73576 5.67855 6.5332 6.01219 6.395C6.34584 6.2568 6.70344 6.18567 7.06457 6.18567C7.42571 6.18567 7.7833 6.2568 8.11695 6.395C8.4506 6.5332 8.75375 6.73576 9.00911 6.99113" stroke="#2D65C3" stroke-width="1.5" stroke-linecap="round" stroke-linejoin="round"/>
</svg>
