<svg width="16" height="16" viewBox="0 0 16 16" fill="none" xmlns="http://www.w3.org/2000/svg">
<path d="M9.5 5V12.7324C9.5 12.8147 9.52032 12.8958 9.55916 12.9683C9.598 13.0409 9.65416 13.1028 9.72265 13.1484L10.4097 13.6064C10.4763 13.6509 10.5527 13.6787 10.6323 13.6874C10.712 13.6962 10.7926 13.6857 10.8673 13.6568C10.942 13.6279 11.0087 13.5815 11.0618 13.5214C11.1148 13.4613 11.1526 13.3894 11.1721 13.3117L12 10" stroke="black" stroke-opacity="0.85" stroke-linecap="round" stroke-linejoin="round"/>
<path d="M12 10C12.663 10 13.2989 9.73664 13.7678 9.2678C14.2366 8.79896 14.5 8.16307 14.5 7.50003C14.5 6.83699 14.2366 6.2011 13.7678 5.73226C13.2989 5.26342 12.663 5.00003 12 5.00003H9.5C9.5 5.00003 6.09677 5.00003 2.82181 2.2533C2.74897 2.192 2.66015 2.15277 2.56578 2.14022C2.47141 2.12768 2.37542 2.14234 2.28909 2.18249C2.20277 2.22263 2.12971 2.28659 2.0785 2.36685C2.02728 2.4471 2.00005 2.5403 2 2.63551V12.3646C2.00005 12.4598 2.02728 12.553 2.0785 12.6332C2.12971 12.7135 2.20277 12.7774 2.28909 12.8176C2.37542 12.8577 2.47141 12.8724 2.56578 12.8598C2.66015 12.8473 2.74897 12.8081 2.82181 12.7468C6.09677 10 9.5 10 9.5 10H12Z" stroke="black" stroke-opacity="0.85" stroke-linecap="round" stroke-linejoin="round"/>
</svg>
