<svg width="74" height="48" viewBox="0 0 74 48" fill="none" xmlns="http://www.w3.org/2000/svg">
<g clip-path="url(#clip0_589_1297)">
<path d="M37 48C57.4345 48 74 44.3309 74 39.8049C74 35.2789 57.4345 31.6098 37 31.6098C16.5655 31.6098 0 35.2789 0 39.8049C0 44.3309 16.5655 48 37 48Z" fill="#F5F5F5"/>
<path d="M63.5938 16.1093L51.8624 2.64353C51.2993 1.72567 50.4773 1.17075 49.6112 1.17075H24.3888C23.5228 1.17075 22.7007 1.72567 22.1376 2.64236L10.4062 16.1105V26.9268H63.5938V16.1093Z" stroke="#D9D9D9"/>
<path d="M48.115 19.8217C48.115 17.9427 49.2643 16.3914 50.69 16.3903H63.5938V37.6238C63.5938 40.1093 62.0675 42.1464 60.1828 42.1464H13.8172C11.9325 42.1464 10.4062 40.1081 10.4062 37.6238V16.3903H23.31C24.7357 16.3903 25.885 17.9392 25.885 19.8182V19.8439C25.885 21.723 27.047 23.2402 28.4715 23.2402H45.5285C46.953 23.2402 48.115 21.7089 48.115 19.8299V19.8217Z" fill="#FAFAFA" stroke="#D9D9D9"/>
</g>
<defs>
<clipPath id="clip0_589_1297">
<rect width="74" height="48" fill="white"/>
</clipPath>
</defs>
</svg>
