<svg width="16" height="16" viewBox="0 0 16 16" fill="none" xmlns="http://www.w3.org/2000/svg">
<path d="M13.5001 3.00018H2.50014C2.23503 3.00053 1.98087 3.106 1.79341 3.29346C1.60595 3.48092 1.50048 3.73507 1.50014 4.00018V13.9265C1.49906 14.1172 1.55303 14.3042 1.65557 14.465C1.75811 14.6259 1.90488 14.7537 2.07826 14.8332C2.21127 14.8954 2.35625 14.9277 2.50307 14.9279C2.73779 14.9276 2.96478 14.844 3.14369 14.6921L5.12807 13.0236L13.5001 13.0002C13.7652 12.9998 14.0194 12.8944 14.2069 12.7069C14.3943 12.5194 14.4998 12.2653 14.5001 12.0002V4.00018C14.4998 3.73507 14.3943 3.48092 14.2069 3.29346C14.0194 3.106 13.7652 3.00053 13.5001 3.00018Z" fill="#2D65C3"/>
</svg>
