<svg width="20" height="20" viewBox="0 0 20 20" fill="none" xmlns="http://www.w3.org/2000/svg">
<path d="M13.1251 7.81251V7.81278C13.125 8.06144 13.0262 8.29991 12.8504 8.47573C12.6745 8.65154 12.436 8.7503 12.1874 8.75028C11.9387 8.75027 11.7002 8.65147 11.5244 8.47563C11.3486 8.29979 11.2498 8.06131 11.2498 7.81265C11.2498 7.56398 11.3486 7.3255 11.5244 7.14966C11.7002 6.97382 11.9387 6.87503 12.1874 6.87501C12.436 6.87499 12.6745 6.97375 12.8504 7.14957C13.0262 7.32538 13.125 7.56385 13.1251 7.81251ZM18.125 4.375V15.625C18.1246 15.9564 17.9928 16.2741 17.7585 16.5085C17.5241 16.7428 17.2064 16.8746 16.875 16.875H3.125C2.7936 16.8746 2.47587 16.7428 2.24154 16.5085C2.0072 16.2741 1.87538 15.9564 1.875 15.625V4.375C1.87538 4.0436 2.0072 3.72587 2.24154 3.49154C2.47587 3.2572 2.7936 3.12538 3.125 3.125H16.875C17.2064 3.12538 17.5241 3.2572 17.7585 3.49154C17.9928 3.72587 18.1246 4.0436 18.125 4.375ZM16.8756 12.8667L16.875 4.375H3.125V11.6161L5.99113 8.75002C6.22575 8.51594 6.54363 8.38449 6.87504 8.38449C7.20645 8.38449 7.52433 8.51594 7.75894 8.75002L11.2501 12.2412L12.8661 10.625C13.1007 10.391 13.4186 10.2595 13.75 10.2595C14.0815 10.2595 14.3993 10.391 14.6339 10.625L16.8756 12.8667Z" fill="#6B7588"/>
</svg>
