<svg width="16" height="16" viewBox="0 0 16 16" fill="none" xmlns="http://www.w3.org/2000/svg">
<path d="M8 5.5V4" stroke="black" stroke-opacity="0.85" stroke-linecap="round" stroke-linejoin="round"/>
<path d="M8.00033 4C10.8892 3 8.00033 0.5 8.00033 0.5C8.00033 0.5 5.00033 3 8.00033 4Z" stroke="black" stroke-opacity="0.85" stroke-linecap="round" stroke-linejoin="round"/>
<path d="M10.125 7.875C10.125 8.43859 9.90112 8.97909 9.5026 9.3776C9.10409 9.77612 8.56359 10 8 10C7.43641 10 6.89591 9.77612 6.4974 9.3776C6.09888 8.97909 5.875 8.43859 5.875 7.875" stroke="black" stroke-opacity="0.85" stroke-linecap="round" stroke-linejoin="round"/>
<path d="M5.875 7.875C5.875 8.43141 5.65677 8.96562 5.26718 9.36288C4.8776 9.76014 4.34774 9.98875 3.79144 9.9996C2.60012 10.0224 1.625 9.02456 1.625 7.83303V7C1.625 6.60218 1.78304 6.22064 2.06434 5.93934C2.34564 5.65804 2.72718 5.5 3.125 5.5H12.875C13.2728 5.5 13.6544 5.65804 13.9357 5.93934C14.217 6.22064 14.375 6.60218 14.375 7V7.83303C14.375 9.02456 13.3999 10.0224 12.2086 9.9996C11.6523 9.98875 11.1224 9.76014 10.7328 9.36288C10.3432 8.96562 10.125 8.43141 10.125 7.875" stroke="black" stroke-opacity="0.85" stroke-linecap="round" stroke-linejoin="round"/>
<path d="M13.5 9.57935V13C13.5 13.1326 13.4473 13.2598 13.3536 13.3536C13.2598 13.4473 13.1326 13.5 13 13.5H3C2.86739 13.5 2.74021 13.4473 2.64645 13.3536C2.55268 13.2598 2.5 13.1326 2.5 13V9.57936" stroke="black" stroke-opacity="0.85" stroke-linecap="round" stroke-linejoin="round"/>
</svg>
