<svg width="12" height="12" viewBox="0 0 12 12" fill="none" xmlns="http://www.w3.org/2000/svg">
<path d="M5.99984 5.99996C5.2665 5.99996 4.63873 5.73885 4.1165 5.21663C3.59428 4.6944 3.33317 4.06663 3.33317 3.33329C3.33317 2.59996 3.59428 1.97218 4.1165 1.44996C4.63873 0.927737 5.2665 0.666626 5.99984 0.666626C6.73317 0.666626 7.36095 0.927737 7.88317 1.44996C8.40539 1.97218 8.6665 2.59996 8.6665 3.33329C8.6665 4.06663 8.40539 4.6944 7.88317 5.21663C7.36095 5.73885 6.73317 5.99996 5.99984 5.99996ZM1.99984 11.3333C1.63317 11.3333 1.31939 11.2028 1.0585 10.942C0.79717 10.6806 0.666504 10.3666 0.666504 9.99996V9.46663C0.666504 9.08885 0.763837 8.74151 0.958504 8.42463C1.15273 8.10818 1.41095 7.86663 1.73317 7.69996C2.42206 7.35551 3.12206 7.09707 3.83317 6.92463C4.54428 6.75263 5.2665 6.66663 5.99984 6.66663C6.73317 6.66663 7.45539 6.75263 8.1665 6.92463C8.87761 7.09707 9.57761 7.35551 10.2665 7.69996C10.5887 7.86663 10.8469 8.10818 11.0412 8.42463C11.2358 8.74151 11.3332 9.08885 11.3332 9.46663V9.99996C11.3332 10.3666 11.2027 10.6806 10.9418 10.942C10.6805 11.2028 10.3665 11.3333 9.99984 11.3333H1.99984Z" fill="#6B7588"/>
</svg>
